HIERARCHY
ROOT pelvis
{
  OFFSET 0 100 0
  CHANNELS 6 Xposition Yposition Zposition Zrotation Xrotation Yrotation
  JOINT pelvis_right_femur
  {
    OFFSET -10.78128 -3.44521 -0.5502486
    CHANNELS 3 Zrotation Xrotation Yrotation
    JOINT right_femur_tibia
    {
      OFFSET -0.8047443 -44.0398 -0.1307829
      CHANNELS 3 Zrotation Xrotation Yrotation
      JOINT right_tibia_foot
      {
        OFFSET 3.006224 -47.83518 -5
        CHANNELS 3 Zrotation Xrotation Yrotation
        End Site
        {
          OFFSET 0 -5 15
        }
      }
    }
  }
  JOINT pelvis_left_femur
  {
    OFFSET 10.78128 -3.44521 -0.5502486
    CHANNELS 3 Zrotation Xrotation Yrotation
    JOINT left_femur_tibia
    {
      OFFSET 0.8047443 -44.0398 -0.1307829
      CHANNELS 3 Zrotation Xrotation Yrotation
      JOINT left_tibia_foot
      {
        OFFSET -4.370144 -48.10324 -4.275266
        CHANNELS 3 Zrotation Xrotation Yrotation
        End Site
        {
          OFFSET 0 -5 15
        }
      }
    }
  }
  JOINT pelvis_spine1
  {
    OFFSET 0 6.468898 -3.129235
    CHANNELS 3 Zrotation Xrotation Yrotation
    JOINT spine1
    {
      OFFSET 0 23.15396 4.99043
      CHANNELS 3 Zrotation Xrotation Yrotation
      JOINT spine2
      {
        OFFSET 0 20.79997 -5.064912
        CHANNELS 3 Zrotation Xrotation Yrotation
        JOINT neck
        {
          OFFSET 0 14.38658 9.616178
          CHANNELS 3 Zrotation Xrotation Yrotation
          End Site
          {
            OFFSET 0 20 0
          }
        }
      }
      JOINT right_manubrium
      {
        OFFSET -5.722621 16.35077 3.967754
        CHANNELS 3 Zrotation Xrotation Yrotation
        JOINT right_clavicle
        {
          OFFSET -13.16364 1.694482 -4.693211
          CHANNELS 3 Zrotation Xrotation Yrotation
          JOINT right_humerus
          {
            OFFSET -28.5034 -0.3100689 -2.792744
            CHANNELS 3 Zrotation Xrotation Yrotation
            JOINT right_radius
            {
              OFFSET -25.15693 0.02248979 -1.271978
              CHANNELS 3 Zrotation Xrotation Yrotation
              End Site
              {
                OFFSET -15 0 0
              }
            }
          }
        }
      }
      JOINT left_manubrium
      {
        OFFSET 5.722621 16.35077 3.967754
        CHANNELS 3 Zrotation Xrotation Yrotation
        JOINT left_clavicle
        {
          OFFSET 13.16364 1.694482 -4.693211
          CHANNELS 3 Zrotation Xrotation Yrotation
          JOINT left_humerus
          {
            OFFSET 29.39168 -1.063119 -2.237045
            CHANNELS 3 Zrotation Xrotation Yrotation
            JOINT left_radius
            {
              OFFSET 24.59957 -0.9528479 0.9047498
              CHANNELS 3 Zrotation Xrotation Yrotation
              End Site
              {
                OFFSET 15 -0 -0
              }
            }
          }
        }
      }
    }
  }
}
MOTION
Frames: 19
Frame Time: 0.0416666666667
386.5225 157.2536 2984.628 -0.979752 -8.266435 4.421827 6.520254 12.62751 7.311634 -0 21.01073 -0 -6.8675 -15.73217 -4.891042 5.028417 -16.65176 2.621739 -0 8.274531 -0 4.758173 -0.4899353 9.586423 1.185429 -4.225561 9.504515 2.288131 18.06059 -8.531204 -0.1482386 15.39624 -0.01218041 -3.135036 -21.43215 2.786799 -3.328197 -35.64634 13.59217 91.21261 11.76784 -12.45077 -0 0 34.60682 -16.36682 14.07009 14.02691 -0.9195297 -23.37571 -7.176222 -90.57627 9.297523 43.03133 0 0 -19.4866 4.998512 4.559981 11.4189
388.2742 157.1459 2990.546 -0.9724431 -8.267292 4.472659 6.520254 12.62751 7.311634 -0 21.01073 -0 -6.8675 -15.73217 -4.891042 5.028417 -16.65176 2.621739 -0 8.274531 -0 4.758173 -0.4899353 9.586423 1.185429 -4.225561 9.504515 2.288131 18.06059 -8.531204 -0.1482386 15.39624 -0.01218041 -3.135036 -21.43215 2.786799 -3.328197 -35.64634 13.59217 91.21261 11.76784 -12.45077 -0 0 34.60682 -16.36682 14.07009 14.02691 -0.9195297 -23.37571 -7.176222 -90.57627 9.297523 43.03133 0 0 -19.4866 4.998512 4.559981 11.4189
390.0312 157.0382 2996.461 -0.9651335 -8.268143 4.523491 6.520254 12.62751 7.311634 -0 21.01073 -0 -6.8675 -15.73217 -4.891042 5.028417 -16.65176 2.621739 -0 8.274531 -0 4.758173 -0.4899353 9.586423 1.185429 -4.225561 9.504515 2.288131 18.06059 -8.531204 -0.1482386 15.39624 -0.01218041 -3.135036 -21.43215 2.786799 -3.328197 -35.64634 13.59217 91.21261 11.76784 -12.45077 -0 0 34.60682 -16.36682 14.07009 14.02691 -0.9195297 -23.37571 -7.176222 -90.57627 9.297523 43.03133 0 0 -19.4866 4.998512 4.559981 11.4189
391.7933 156.9305 3002.376 -0.957823 -8.268987 4.574324 6.520254 12.62751 7.311634 -0 21.01073 -0 -6.8675 -15.73217 -4.891042 5.028417 -16.65176 2.621739 -0 8.274531 -0 4.758173 -0.4899353 9.586423 1.185429 -4.225561 9.504515 2.288131 18.06059 -8.531204 -0.1482386 15.39624 -0.01218041 -3.135036 -21.43215 2.786799 -3.328197 -35.64634 13.59217 91.21261 11.76784 -12.45077 -0 0 34.60682 -16.36682 14.07009 14.02691 -0.9195297 -23.37571 -7.176222 -90.57627 9.297523 43.03133 0 0 -19.4866 4.998512 4.559981 11.4189
393.5606 156.8228 3008.288 -0.9505118 -8.269825 4.625157 6.520254 12.62751 7.311634 -0 21.01073 -0 -6.8675 -15.73217 -4.891042 5.028417 -16.65176 2.621739 -0 8.274531 -0 4.758173 -0.4899353 9.586423 1.185429 -4.225561 9.504515 2.288131 18.06059 -8.531204 -0.1482386 15.39624 -0.01218041 -3.135036 -21.43215 2.786799 -3.328197 -35.64634 13.59217 91.21261 11.76784 -12.45077 -0 0 34.60682 -16.36682 14.07009 14.02691 -0.9195297 -23.37571 -7.176222 -90.57627 9.297523 43.03133 0 0 -19.4866 4.998512 4.559981 11.4189
395.333 156.7151 3014.199 -0.9431999 -8.270656 4.67599 6.520254 12.62751 7.311634 -0 21.01073 -0 -6.8675 -15.73217 -4.891042 5.028417 -16.65176 2.621739 -0 8.274531 -0 4.758173 -0.4899353 9.586423 1.185429 -4.225561 9.504515 2.288131 18.06059 -8.531204 -0.1482386 15.39624 -0.01218041 -3.135036 -21.43215 2.786799 -3.328197 -35.64634 13.59217 91.21261 11.76784 -12.45077 -0 0 34.60682 -16.36682 14.07009 14.02691 -0.9195297 -23.37571 -7.176222 -90.57627 9.297523 43.03133 0 0 -19.4866 4.998512 4.559981 11.4189
397.1107 156.6074 3020.109 -0.9358872 -8.271481 4.726823 6.520254 12.62751 7.311634 -0 21.01073 -0 -6.8675 -15.73217 -4.891042 5.028417 -16.65176 2.621739 -0 8.274531 -0 4.758173 -0.4899353 9.586423 1.185429 -4.225561 9.504515 2.288131 18.06059 -8.531204 -0.1482386 15.39624 -0.01218041 -3.135036 -21.43215 2.786799 -3.328197 -35.64634 13.59217 91.21261 11.76784 -12.45077 -0 0 34.60682 -16.36682 14.07009 14.02691 -0.9195297 -23.37571 -7.176222 -90.57627 9.297523 43.03133 0 0 -19.4866 4.998512 4.559981 11.4189
398.8936 156.4997 3026.017 -0.9285737 -8.2723 4.777657 6.520254 12.62751 7.311634 -0 21.01073 -0 -6.8675 -15.73217 -4.891042 5.028417 -16.65176 2.621739 -0 8.274531 -0 4.758173 -0.4899353 9.586423 1.185429 -4.225561 9.504515 2.288131 18.06059 -8.531204 -0.1482386 15.39624 -0.01218041 -3.135036 -21.43215 2.786799 -3.328197 -35.64634 13.59217 91.21261 11.76784 -12.45077 -0 0 34.60682 -16.36682 14.07009 14.02691 -0.9195297 -23.37571 -7.176222 -90.57627 9.297523 43.03133 0 0 -19.4866 4.998512 4.559981 11.4189
400.6817 156.392 3031.923 -0.9212595 -8.273112 4.828491 6.520254 12.62751 7.311634 -0 21.01073 -0 -6.8675 -15.73217 -4.891042 5.028417 -16.65176 2.621739 -0 8.274531 -0 4.758173 -0.4899353 9.586423 1.185429 -4.225561 9.504515 2.288131 18.06059 -8.531204 -0.1482386 15.39624 -0.01218041 -3.135036 -21.43215 2.786799 -3.328197 -35.64634 13.59217 91.21261 11.76784 -12.45077 -0 0 34.60682 -16.36682 14.07009 14.02691 -0.9195297 -23.37571 -7.176222 -90.57627 9.297523 43.03133 0 0 -19.4866 4.998512 4.559981 11.4189
402.4749 156.2843 3037.828 -0.9139446 -8.273918 4.879325 6.520254 12.62751 7.311634 -0 21.01073 -0 -6.8675 -15.73217 -4.891042 5.028417 -16.65176 2.621739 -0 8.274531 -0 4.758173 -0.4899353 9.586423 1.185429 -4.225561 9.504515 2.288131 18.06059 -8.531204 -0.1482386 15.39624 -0.01218041 -3.135036 -21.43215 2.786799 -3.328197 -35.64634 13.59217 91.21261 11.76784 -12.45077 -0 0 34.60682 -16.36682 14.07009 14.02691 -0.9195297 -23.37571 -7.176222 -90.57627 9.297523 43.03133 0 0 -19.4866 4.998512 4.559981 11.4189
404.2733 156.1766 3043.731 -0.9066289 -8.274717 4.930159 6.520254 12.62751 7.311634 -0 21.01073 -0 -6.8675 -15.73217 -4.891042 5.028417 -16.65176 2.621739 -0 8.274531 -0 4.758173 -0.4899353 9.586423 1.185429 -4.225561 9.504515 2.288131 18.06059 -8.531204 -0.1482386 15.39624 -0.01218041 -3.135036 -21.43215 2.786799 -3.328197 -35.64634 13.59217 91.21261 11.76784 -12.45077 -0 0 34.60682 -16.36682 14.07009 14.02691 -0.9195297 -23.37571 -7.176222 -90.57627 9.297523 43.03133 0 0 -19.4866 4.998512 4.559981 11.4189
406.0769 156.0689 3049.633 -0.8993125 -8.27551 4.980993 6.520254 12.62751 7.311634 -0 21.01073 -0 -6.8675 -15.73217 -4.891042 5.028417 -16.65176 2.621739 -0 8.274531 -0 4.758173 -0.4899353 9.586423 1.185429 -4.225561 9.504515 2.288131 18.06059 -8.531204 -0.1482386 15.39624 -0.01218041 -3.135036 -21.43215 2.786799 -3.328197 -35.64634 13.59217 91.21261 11.76784 -12.45077 -0 0 34.60682 -16.36682 14.07009 14.02691 -0.9195297 -23.37571 -7.176222 -90.57627 9.297523 43.03133 0 0 -19.4866 4.998512 4.559981 11.4189
407.8857 155.9612 3055.533 -0.8919953 -8.276296 5.031828 6.520254 12.62751 7.311634 -0 21.01073 -0 -6.8675 -15.73217 -4.891042 5.028417 -16.65176 2.621739 -0 8.274531 -0 4.758173 -0.4899353 9.586423 1.185429 -4.225561 9.504515 2.288131 18.06059 -8.531204 -0.1482386 15.39624 -0.01218041 -3.135036 -21.43215 2.786799 -3.328197 -35.64634 13.59217 91.21261 11.76784 -12.45077 -0 0 34.60682 -16.36682 14.07009 14.02691 -0.9195297 -23.37571 -7.176222 -90.57627 9.297523 43.03133 0 0 -19.4866 4.998512 4.559981 11.4189
409.6997 155.8535 3061.431 -0.8846775 -8.277076 5.082663 6.520254 12.62751 7.311634 -0 21.01073 -0 -6.8675 -15.73217 -4.891042 5.028417 -16.65176 2.621739 -0 8.274531 -0 4.758173 -0.4899353 9.586423 1.185429 -4.225561 9.504515 2.288131 18.06059 -8.531204 -0.1482386 15.39624 -0.01218041 -3.135036 -21.43215 2.786799 -3.328197 -35.64634 13.59217 91.21261 11.76784 -12.45077 -0 0 34.60682 -16.36682 14.07009 14.02691 -0.9195297 -23.37571 -7.176222 -90.57627 9.297523 43.03133 0 0 -19.4866 4.998512 4.559981 11.4189
411.5188 155.7458 3067.328 -0.8773589 -8.27785 5.133498 6.520254 12.62751 7.311634 -0 21.01073 -0 -6.8675 -15.73217 -4.891042 5.028417 -16.65176 2.621739 -0 8.274531 -0 4.758173 -0.4899353 9.586423 1.185429 -4.225561 9.504515 2.288131 18.06059 -8.531204 -0.1482386 15.39624 -0.01218041 -3.135036 -21.43215 2.786799 -3.328197 -35.64634 13.59217 91.21261 11.76784 -12.45077 -0 0 34.60682 -16.36682 14.07009 14.02691 -0.9195297 -23.37571 -7.176222 -90.57627 9.297523 43.03133 0 0 -19.4866 4.998512 4.559981 11.4189
413.3432 155.6381 3073.224 -0.8700397 -8.278617 5.184333 6.520254 12.62751 7.311634 -0 21.01073 -0 -6.8675 -15.73217 -4.891042 5.028417 -16.65176 2.621739 -0 8.274531 -0 4.758173 -0.4899353 9.586423 1.185429 -4.225561 9.504515 2.288131 18.06059 -8.531204 -0.1482386 15.39624 -0.01218041 -3.135036 -21.43215 2.786799 -3.328197 -35.64634 13.59217 91.21261 11.76784 -12.45077 -0 0 34.60682 -16.36682 14.07009 14.02691 -0.9195297 -23.37571 -7.176222 -90.57627 9.297523 43.03133 0 0 -19.4866 4.998512 4.559981 11.4189
415.1727 155.5304 3079.117 -0.8627197 -8.279378 5.235168 6.520254 12.62751 7.311634 -0 21.01073 -0 -6.8675 -15.73217 -4.891042 5.028417 -16.65176 2.621739 -0 8.274531 -0 4.758173 -0.4899353 9.586423 1.185429 -4.225561 9.504515 2.288131 18.06059 -8.531204 -0.1482386 15.39624 -0.01218041 -3.135036 -21.43215 2.786799 -3.328197 -35.64634 13.59217 91.21261 11.76784 -12.45077 -0 0 34.60682 -16.36682 14.07009 14.02691 -0.9195297 -23.37571 -7.176222 -90.57627 9.297523 43.03133 0 0 -19.4866 4.998512 4.559981 11.4189
417.0073 155.4227 3085.009 -0.855399 -8.280132 5.286004 6.520254 12.62751 7.311634 -0 21.01073 -0 -6.8675 -15.73217 -4.891042 5.028417 -16.65176 2.621739 -0 8.274531 -0 4.758173 -0.4899353 9.586423 1.185429 -4.225561 9.504515 2.288131 18.06059 -8.531204 -0.1482386 15.39624 -0.01218041 -3.135036 -21.43215 2.786799 -3.328197 -35.64634 13.59217 91.21261 11.76784 -12.45077 -0 0 34.60682 -16.36682 14.07009 14.02691 -0.9195297 -23.37571 -7.176222 -90.57627 9.297523 43.03133 0 0 -19.4866 4.998512 4.559981 11.4189
418.8472 155.315 3090.9 -0.8480777 -8.28088 5.33684 6.520254 12.62751 7.311634 -0 21.01073 -0 -6.8675 -15.73217 -4.891042 5.028417 -16.65176 2.621739 -0 8.274531 -0 4.758173 -0.4899353 9.586423 1.185429 -4.225561 9.504515 2.288131 18.06059 -8.531204 -0.1482386 15.39624 -0.01218041 -3.135036 -21.43215 2.786799 -3.328197 -35.64634 13.59217 91.21261 11.76784 -12.45077 -0 0 34.60682 -16.36682 14.07009 14.02691 -0.9195297 -23.37571 -7.176222 -90.57627 9.297523 43.03133 0 0 -19.4866 4.998512 4.559981 11.4189
